<svg width="25" height="25" viewBox="0 0 25 25" fill="none" xmlns="http://www.w3.org/2000/svg">
<path d="M20.8767 8.31994L13.1767 12.7799C12.8667 12.9599 12.4767 12.9599 12.1567 12.7799L4.45672 8.31994C3.90672 7.99994 3.76672 7.24994 4.18672 6.77994C4.47672 6.44994 4.80672 6.17994 5.15672 5.98994L10.5767 2.98994C11.7367 2.33994 13.6167 2.33994 14.7767 2.98994L20.1967 5.98994C20.5467 6.17994 20.8767 6.45994 21.1667 6.77994C21.5667 7.24994 21.4267 7.99994 20.8767 8.31994Z" fill="#EA7E41"/>
<path d="M12.0965 14.6399V21.4599C12.0965 22.2199 11.3265 22.7199 10.6465 22.3899C8.58648 21.3799 5.11648 19.4899 5.11648 19.4899C3.89648 18.7999 2.89648 17.0599 2.89648 15.6299V10.4699C2.89648 9.67988 3.72648 9.17988 4.40648 9.56988L11.5965 13.7399C11.8965 13.9299 12.0965 14.2699 12.0965 14.6399Z" fill="#EA7E41"/>
<path d="M13.2363 14.6399V21.4599C13.2363 22.2199 14.0063 22.7199 14.6863 22.3899C16.7463 21.3799 20.2163 19.4899 20.2163 19.4899C21.4363 18.7999 22.4363 17.0599 22.4363 15.6299V10.4699C22.4363 9.67988 21.6063 9.17988 20.9263 9.56988L13.7363 13.7399C13.4363 13.9299 13.2363 14.2699 13.2363 14.6399Z" fill="#EA7E41"/>
</svg>
