<svg width="25" height="25" viewBox="0 0 25 25" fill="none" xmlns="http://www.w3.org/2000/svg">
<path d="M19.0232 12.0298C18.4532 11.8798 17.7832 11.7998 16.9832 11.7998C15.8732 11.7998 15.4632 12.0698 14.8932 12.4998C14.8632 12.5198 14.8332 12.5498 14.8032 12.5798L13.8532 13.5898C13.0632 14.4398 11.6132 14.4398 10.8132 13.5898L9.86318 12.5898C9.83318 12.5498 9.80318 12.5198 9.77318 12.4998C9.19318 12.0698 8.78318 11.7998 7.68318 11.7998C6.88318 11.7998 6.21318 11.8698 5.64318 12.0298C3.26318 12.6698 3.26318 14.5598 3.26318 16.2198V17.1498C3.26318 19.6598 3.26318 22.4998 8.61318 22.4998H16.0532C19.6032 22.4998 21.4032 20.6998 21.4032 17.1498V16.2198C21.4032 14.5598 21.4032 12.6698 19.0232 12.0298Z" fill="#12B3A8"/>
<path d="M15.123 2.5H9.54305C5.12305 2.5 5.12305 4.85 5.12305 6.92V10.62C5.16305 10.6 5.21305 10.59 5.25305 10.58C5.95305 10.39 6.74305 10.3 7.68305 10.3C9.22305 10.3 9.95305 10.75 10.673 11.3C10.773 11.37 10.873 11.46 10.963 11.56L11.903 12.55C12.003 12.66 12.163 12.72 12.333 12.72C12.503 12.72 12.663 12.66 12.753 12.56L13.713 11.55C13.793 11.47 13.883 11.38 13.983 11.31C14.723 10.75 15.443 10.3 16.983 10.3C17.923 10.3 18.713 10.39 19.413 10.58C19.453 10.59 19.503 10.6 19.543 10.62V6.92C19.543 4.85 19.543 2.5 15.123 2.5ZM13.883 9H10.783C10.403 9 10.083 8.68 10.083 8.3C10.083 7.91 10.403 7.6 10.783 7.6H13.883C14.263 7.6 14.583 7.91 14.583 8.3C14.583 8.68 14.263 9 13.883 9ZM14.663 6.21H10.003C9.62305 6.21 9.31305 5.89 9.31305 5.51C9.31305 5.12 9.62305 4.81 10.003 4.81H14.663C15.043 4.81 15.353 5.12 15.353 5.51C15.353 5.89 15.043 6.21 14.663 6.21Z" fill="#12B3A8"/>
</svg>
